# Blender 4.2.0
# www.blender.org
mtllib CornerCounter.mtl
g Corner_Counter_Corner_Counter
v -0.459923 0.998979 0.459923
v -0.502609 -0.001021 -0.500610
v -0.459923 0.998979 -0.457924
v 0.454690 0.998979 0.459923
v 0.497377 -0.001021 -0.500610
v 0.454690 0.998979 -0.457924
v -0.502609 0.898979 -0.500610
v 0.497377 0.898979 -0.500610
v 0.497377 0.898979 0.502610
v 0.497377 -0.001021 0.502610
v -0.502609 -0.001021 0.502610
v -0.502609 0.898979 0.502610
v -0.502609 0.987562 0.502610
v -0.491192 0.998979 0.502610
v -0.491192 0.998979 -0.489193
v -0.502609 0.987562 -0.500610
v 0.485960 0.998979 -0.489193
v 0.497377 0.987562 -0.500610
v 0.485960 0.998979 0.502610
v 0.497377 0.987562 0.502610
v -0.459923 1.006106 0.459923
v -0.456779 1.009250 0.456780
v -0.456779 1.009250 -0.454780
v -0.459923 1.006106 -0.457924
v 0.451547 1.009250 -0.454780
v 0.454690 1.006106 -0.457924
v 0.451547 1.009250 0.456780
v 0.454690 1.006106 0.459923
vn -0.0000 0.7071 -0.7071
vn -0.0000 1.0000 -0.0000
vn -0.0000 -0.0000 -1.0000
vn 1.0000 -0.0000 -0.0000
vn -0.0000 -0.0000 1.0000
vn -1.0000 -0.0000 -0.0000
vn -0.0000 -1.0000 -0.0000
vn -0.7071 0.7071 -0.0000
vn 0.7071 0.7071 -0.0000
vn -0.0000 0.7071 0.7071
vt 0.562097 0.300307
vt 0.562097 0.041071
vt 0.568154 0.038042
vt 0.568154 0.303336
vt 0.553801 0.049367
vt 0.311156 0.049367
vt 0.299832 0.041071
vt 0.562097 0.041071
vt 0.311156 0.292011
vt 0.299832 0.300307
vt 0.672491 0.011513
vt 0.911255 0.011513
vt 0.911255 0.276807
vt 0.672491 0.276807
vt 0.853445 0.630677
vt 0.614680 0.630677
vt 0.614680 0.365383
vt 0.853445 0.365383
vt 0.011513 0.276806
vt 0.276807 0.276806
vt 0.276807 0.515571
vt 0.011513 0.515571
vt 0.299832 0.329865
vt 0.299832 0.306365
vt 0.565126 0.306365
vt 0.565126 0.329865
vt 0.250277 0.803890
vt 0.011513 0.803890
vt 0.011513 0.538596
vt 0.250277 0.538596
vt 0.302556 0.667739
vt 0.545201 0.667739
vt 0.545201 0.669630
vt 0.302556 0.669630
vt 0.303390 0.671298
vt 0.303390 0.912275
vt 0.301722 0.913109
vt 0.301722 0.670464
vt 0.011513 0.011513
vt 0.276807 0.011513
vt 0.553801 0.292011
vt 0.565126 0.011513
vt 0.565126 0.035013
vt 0.299832 0.035013
vt 0.299832 0.011513
vt 0.562097 0.300307
vt 0.299832 0.300307
vt 0.547926 0.670464
vt 0.547926 0.913109
vt 0.546035 0.913109
vt 0.546035 0.670464
vt 0.299832 0.913109
vt 0.299832 0.670464
vt 0.545201 0.915833
vt 0.302556 0.915833
vt 0.302556 0.913943
vt 0.545201 0.913943
vt 0.591655 0.038042
vt 0.591655 0.303336
vt 0.544367 0.671298
vt 0.544367 0.912275
s 0
g Corner_Counter_Cooker/Counter
usemtl Cooker/Counter
f 15/1/1 17/2/1 18/3/1 16/4/1
f 6/5/2 4/6/2 19/7/2 17/8/2
f 4/6/2 1/9/2 14/10/2 19/7/2
f 2/11/3 7/12/3 8/13/3 5/14/3
f 5/15/4 8/16/4 9/17/4 10/18/4
f 11/19/5 10/20/5 9/21/5 12/22/5
f 12/23/6 13/24/6 16/25/6 7/26/6
f 11/27/6 12/28/6 7/29/6 2/30/6
f 3/31/6 1/32/6 21/33/6 24/34/6
f 23/35/1 25/36/1 26/37/1 24/38/1
f 2/39/7 5/40/7 10/20/7 11/19/7
f 6/5/2 17/2/2 15/1/2 3/41/2
f 8/42/4 18/43/4 20/44/4 9/45/4
f 1/9/2 3/41/2 15/46/2 14/47/2
f 1/48/5 4/49/5 28/50/5 21/51/5
f 6/52/3 3/53/3 24/38/3 26/37/3
f 4/54/4 6/55/4 26/56/4 28/57/4
f 14/47/8 15/46/8 16/25/8 13/24/8
f 18/3/3 8/58/3 7/59/3 16/4/3
f 17/8/9 19/7/9 20/44/9 18/43/9
f 13/24/5 12/23/5 9/45/5 20/44/5
f 22/60/8 23/35/8 24/34/8 21/33/8
f 27/61/10 22/60/10 21/51/10 28/50/10
f 25/36/9 27/61/9 28/57/9 26/56/9
f 25/36/2 23/35/2 22/60/2 27/61/2
f 13/24/5 20/44/5 19/7/5 14/47/5
