# Blender 4.2.0
# www.blender.org
mtllib CornerHangingCabinet.mtl
g Corner_Hanging_Cabinet_Corner_Hanging_Cabinet
v 0.419494 0.704410 0.463743
v 0.419494 -0.573111 0.463743
v 0.141500 -0.573111 0.463743
v 0.141500 0.704410 0.463743
v 0.141500 -0.573111 0.488013
v 0.130010 -0.584601 0.499503
v 0.130010 0.715899 0.499503
v 0.141500 0.704410 0.488013
v 0.419494 -0.573111 0.488013
v 0.430984 -0.584601 0.499503
v 0.430984 0.715899 0.499503
v 0.419494 0.704410 0.488013
v 0.534792 0.804793 0.488884
v 0.524173 0.815413 0.488884
v 0.524173 0.804793 0.499503
v 0.524173 -0.673494 0.499503
v 0.524173 -0.684114 0.488884
v 0.534792 -0.673494 0.488884
v 0.041116 0.815413 0.488884
v 0.030497 0.804793 0.488884
v 0.041116 0.804793 0.499503
v 0.041116 -0.673494 0.499503
v 0.030497 -0.673494 0.488884
v 0.041116 -0.684114 0.488884
v 0.534792 -0.673494 -0.277347
v 0.524172 -0.684114 -0.266728
v 0.524172 0.815413 -0.266728
v 0.534792 0.804793 -0.277347
v 0.041116 -0.684114 0.206671
v 0.030497 -0.673494 0.217290
v 0.030497 0.804793 0.217290
v 0.041116 0.815413 0.206671
v -0.463743 0.704410 -0.429494
v -0.463743 -0.573111 -0.429494
v -0.463743 -0.573111 -0.151500
v -0.463743 0.704410 -0.151500
v -0.488013 -0.573111 -0.151500
v -0.499503 -0.584601 -0.140010
v -0.499503 0.715899 -0.140010
v -0.488013 0.704410 -0.151500
v -0.488013 -0.573111 -0.429494
v -0.499503 -0.584601 -0.440984
v -0.499503 0.715899 -0.440984
v -0.488013 0.704410 -0.429494
v -0.488884 0.804793 -0.535134
v -0.488884 0.815413 -0.524515
v -0.499503 0.804793 -0.524515
v -0.499503 -0.673494 -0.524515
v -0.488884 -0.684114 -0.524515
v -0.488884 -0.673494 -0.535134
v -0.488884 0.815413 -0.051116
v -0.488884 0.804793 -0.040497
v -0.499503 0.804793 -0.051116
v -0.499503 -0.673494 -0.051116
v -0.488884 -0.673494 -0.040497
v -0.488884 -0.684114 -0.051116
v 0.272710 -0.673494 -0.535134
v 0.262090 -0.684114 -0.524515
v 0.262090 0.815413 -0.524515
v 0.272710 0.804793 -0.535134
v -0.216671 -0.684114 -0.051116
v -0.227290 -0.673494 -0.040497
v -0.227290 0.804793 -0.040497
v -0.216671 0.815413 -0.051116
v 0.030497 -0.645030 0.245755
v 0.030497 -0.645030 0.460420
v 0.030497 0.776329 0.460420
v 0.030497 0.776329 0.245755
v -0.255755 -0.645030 -0.040497
v -0.255755 0.776329 -0.040497
v -0.460420 0.776329 -0.040497
v -0.460420 -0.645030 -0.040497
v -0.207163 0.776329 -0.020369
v -0.207163 -0.645030 -0.020369
v 0.010369 -0.645030 0.197163
v 0.010369 0.776329 0.197163
v 0.007717 -0.645030 0.460420
v 0.007717 -0.645030 0.245755
v 0.007717 0.776329 0.245755
v 0.007717 0.776329 0.460420
v -0.255755 0.776329 -0.017717
v -0.255755 -0.645030 -0.017717
v -0.460420 -0.645030 -0.017717
v -0.460420 0.776329 -0.017717
v -0.223271 0.776329 -0.004262
v -0.223271 -0.645030 -0.004262
v -0.005738 0.776329 0.213271
v -0.005738 -0.645030 0.213271
vn -0.0000 -0.0000 1.0000
vn 1.0000 -0.0000 -0.0000
vn -0.0000 1.0000 -0.0000
vn -1.0000 -0.0000 -0.0000
vn -0.0000 -1.0000 -0.0000
vn -0.0000 0.7071 0.7071
vn -0.0000 -0.7071 0.7071
vn -0.7071 -0.0000 0.7071
vn 0.5773 0.5774 0.5773
vn 0.5773 -0.5774 0.5773
vn -0.5773 0.5774 0.5774
vn -0.5774 -0.5774 0.5773
vn 0.7071 -0.0000 0.7071
vn 0.7071 -0.7071 -0.0000
vn -0.7071 -0.7071 -0.0000
vn 0.7071 0.7071 -0.0000
vn -0.7071 0.7071 -0.0000
vn -0.0000 -0.0000 -1.0000
vn -0.5773 0.5774 -0.5774
vn -0.5773 -0.5774 -0.5773
vn -0.5773 -0.5774 0.5774
vn -0.7071 -0.0000 -0.7071
vn -0.0000 -0.7071 -0.7071
vn -0.0000 0.7071 -0.7071
vn -0.4082 0.8165 0.4082
vn -0.4083 -0.8165 0.4082
vn 0.4049 -0.8165 -0.4116
vn 0.4049 0.8165 -0.4116
vn 0.7012 -0.0000 -0.7129
vt 0.512007 0.372557
vt 0.512007 0.026713
vt 0.535638 0.003082
vt 0.535638 0.396188
vt 0.688605 0.742046
vt 0.688365 0.410924
vt 0.696101 0.417345
vt 0.694496 0.732909
vt 0.678179 0.784672
vt 0.678208 0.974589
vt 0.547231 0.833624
vt 0.561180 0.769051
vt 0.780201 0.406964
vt 0.780440 0.738086
vt 0.772704 0.731665
vt 0.774310 0.416102
vt 0.864530 0.402351
vt 0.864530 0.742086
vt 0.790629 0.742086
vt 0.790629 0.402351
vt 0.522934 0.789251
vt 0.522998 0.976387
vt 0.405596 0.992765
vt 0.391079 0.926800
vt 0.431998 0.372557
vt 0.408367 0.396188
vt 0.431998 0.026713
vt 0.408367 0.003082
vt 0.543532 0.402351
vt 0.607430 0.406110
vt 0.601634 0.412626
vt 0.551131 0.412242
vt 0.398211 0.003082
vt 0.398211 0.396188
vt 0.203728 0.396188
vt 0.203728 0.003082
vt 0.684339 0.406388
vt 0.784466 0.402351
vt 0.784466 0.742622
vt 0.684339 0.746659
vt 0.682176 0.784091
vt 0.679275 0.780751
vt 0.524067 0.980062
vt 0.526843 0.976912
vt 0.557470 0.767604
vt 0.561047 0.765181
vt 0.405501 0.996918
vt 0.401718 0.994324
vt 0.539630 0.003082
vt 0.539630 0.396188
vt 0.526843 0.786487
vt 0.387312 0.930950
vt 0.682176 0.977395
vt 0.543532 0.829566
vt 0.404374 0.396188
vt 0.404374 0.003082
vt 0.886234 0.007839
vt 0.878484 0.014565
vt 0.800542 0.017506
vt 0.794572 0.008735
vt 0.573417 0.372557
vt 0.549786 0.396188
vt 0.549786 0.003082
vt 0.573417 0.026713
vt 0.885960 0.339572
vt 0.879991 0.330801
vt 0.802049 0.333742
vt 0.794299 0.340468
vt 0.925277 0.940973
vt 0.808278 0.956593
vt 0.794329 0.892020
vt 0.925306 0.751056
vt 0.870693 0.402351
vt 0.944594 0.402351
vt 0.944594 0.742086
vt 0.870693 0.742086
vt 0.377239 0.994154
vt 0.245385 0.856605
vt 0.259902 0.790640
vt 0.377304 0.807018
vt 0.536339 0.762881
vt 0.434753 0.764313
vt 0.440524 0.757647
vt 0.528675 0.753996
vt 0.003082 0.003082
vt 0.197565 0.003082
vt 0.197565 0.396188
vt 0.003082 0.396188
vt 0.653426 0.026713
vt 0.677057 0.003082
vt 0.677057 0.396188
vt 0.653426 0.372557
vt 0.790291 0.345226
vt 0.790291 0.004356
vt 0.929274 0.941554
vt 0.926373 0.944894
vt 0.378373 0.803343
vt 0.381148 0.806493
vt 0.808145 0.960464
vt 0.804568 0.958041
vt 0.259807 0.786487
vt 0.256024 0.789081
vt 0.890242 0.343952
vt 0.890242 0.003082
vt 0.545794 0.396188
vt 0.545794 0.003082
vt 0.381148 0.996918
vt 0.241618 0.852456
vt 0.929274 0.748250
vt 0.790630 0.896078
vt 0.896405 0.007971
vt 0.896405 0.003082
vt 0.993319 0.003082
vt 0.993319 0.007971
vt 0.678176 0.759017
vt 0.614277 0.755258
vt 0.620073 0.748743
vt 0.670577 0.749126
vt 0.003082 0.991388
vt 0.003082 0.986499
vt 0.099996 0.986499
vt 0.099996 0.991388
vt 0.003082 0.806510
vt 0.003082 0.801620
vt 0.099996 0.801620
vt 0.099996 0.806510
vt 0.681050 0.396188
vt 0.681050 0.003082
vt 0.896405 0.192850
vt 0.896405 0.187960
vt 0.993319 0.187960
vt 0.993319 0.192850
vt 0.173889 0.402351
vt 0.235454 0.402351
vt 0.227887 0.409918
vt 0.181455 0.409918
vt 0.099996 0.402351
vt 0.099996 0.795457
vt 0.003082 0.795457
vt 0.003082 0.402351
vt 0.235454 0.795457
vt 0.173889 0.795457
vt 0.181455 0.787890
vt 0.227887 0.787890
vt 0.167725 0.795457
vt 0.106159 0.795457
vt 0.113726 0.787890
vt 0.160158 0.787890
vt 0.687213 0.396188
vt 0.687213 0.003082
vt 0.694780 0.010649
vt 0.694780 0.388621
vt 0.106159 0.402351
vt 0.167725 0.402351
vt 0.160158 0.409918
vt 0.113726 0.409918
vt 0.784127 0.003082
vt 0.784127 0.396188
vt 0.776561 0.388621
vt 0.776561 0.010649
vt 0.382157 0.402351
vt 0.428589 0.402351
vt 0.428589 0.780323
vt 0.382157 0.780323
vt 0.375994 0.402351
vt 0.375994 0.780323
vt 0.329562 0.780323
vt 0.329562 0.402351
vt 0.241618 0.780323
vt 0.241618 0.402351
vt 0.323398 0.402351
vt 0.323398 0.780323
vt 0.613935 0.403622
vt 0.621219 0.410777
vt 0.543532 0.759017
vt 0.549670 0.749832
vt 0.434753 0.410227
vt 0.537368 0.402351
vt 0.531199 0.411638
vt 0.442066 0.416808
vt 0.678176 0.402351
vt 0.672038 0.411537
vt 0.607772 0.757746
vt 0.600488 0.750592
s 0
g Corner_Hanging_Cabinet_Corner_Hanging_Counter
usemtl Corner_Hanging_Counter
f 11/1/1 10/2/1 16/3/1 15/4/1
f 8/5/2 5/6/2 3/7/2 4/8/2
f 14/9/3 27/10/3 32/11/3 19/12/3
f 9/13/4 12/14/4 1/15/4 2/16/4
f 2/17/1 1/18/1 4/19/1 3/20/1
f 26/21/5 17/22/5 24/23/5 29/24/5
f 12/14/5 8/5/5 4/8/5 1/15/5
f 7/25/1 11/1/1 15/4/1 21/26/1
f 10/2/1 6/27/1 22/28/1 16/3/1
f 65/29/5 66/30/5 77/31/5 78/32/5
f 25/33/2 28/34/2 13/35/2 18/36/2
f 6/27/1 7/25/1 21/26/1 22/28/1
f 6/37/6 10/38/6 9/13/6 5/6/6
f 11/39/7 7/40/7 8/5/7 12/14/7
f 12/14/8 9/13/8 10/38/8 11/39/8
f 13/41/9 14/9/9 15/42/9
f 16/43/10 17/22/10 18/44/10
f 19/12/11 20/45/11 21/46/11
f 22/47/12 23/48/12 24/23/12
f 7/40/13 6/37/13 5/6/13 8/5/13
f 24/23/7 17/22/7 16/43/7 22/47/7
f 14/9/6 19/12/6 21/46/6 15/42/6
f 15/4/13 16/3/13 18/49/13 13/50/13
f 25/51/14 18/44/14 17/22/14 26/21/14
f 23/48/15 30/52/15 29/24/15 24/23/15
f 27/10/16 14/9/16 13/41/16 28/53/16
f 31/54/17 20/45/17 19/12/17 32/11/17
f 20/55/8 23/56/8 22/28/8 21/26/8
f 37/57/3 35/58/3 34/59/3 41/60/3
f 43/61/4 47/62/4 48/63/4 42/64/4
f 40/65/18 36/66/18 35/58/18 37/57/18
f 41/60/1 34/59/1 33/67/1 44/68/1
f 5/6/3 9/13/3 2/16/3 3/7/3
f 46/69/3 51/70/3 64/71/3 59/72/3
f 34/73/4 35/74/4 36/75/4 33/76/4
f 58/77/5 61/78/5 56/79/5 49/80/5
f 44/68/5 33/67/5 36/66/5 40/65/5
f 76/81/3 73/82/3 85/83/3 87/84/3
f 57/85/18 50/86/18 45/87/18 60/88/18
f 38/89/4 54/90/4 53/91/4 39/92/4
f 39/92/4 53/91/4 47/62/4 43/61/4
f 42/64/4 48/63/4 54/90/4 38/89/4
f 44/68/8 43/93/8 42/94/8 41/60/8
f 45/95/19 47/96/19 46/69/19
f 48/97/20 50/98/20 49/80/20
f 51/70/11 53/99/11 52/100/11
f 54/101/21 56/79/21 55/102/21
f 39/103/22 40/65/22 37/57/22 38/104/22
f 38/104/17 37/57/17 41/60/17 42/94/17
f 43/93/15 44/68/15 40/65/15 39/103/15
f 47/62/22 45/105/22 50/106/22 48/63/22
f 57/107/23 58/77/23 49/80/23 50/98/23
f 55/102/7 56/79/7 61/78/7 62/108/7
f 59/72/24 60/109/24 45/95/24 46/69/24
f 63/110/6 64/71/6 51/70/6 52/100/6
f 56/79/15 54/101/15 48/97/15 49/80/15
f 64/111/25 63/112/25 31/113/25 32/114/25
f 70/115/3 71/116/3 84/117/3 81/118/3
f 62/119/26 61/120/26 29/121/26 30/122/26
f 46/69/17 47/96/17 53/99/17 51/70/17
f 58/123/27 57/124/27 25/125/27 26/126/27
f 52/127/8 53/91/8 54/90/8 55/128/8
f 60/129/28 59/130/28 27/131/28 28/132/28
f 30/133/4 23/134/4 66/135/4 65/136/4
f 57/137/29 60/138/29 28/139/29 25/140/29
f 20/141/4 31/142/4 68/143/4 67/144/4
f 23/134/4 20/141/4 67/144/4 66/135/4
f 31/142/4 30/133/4 65/136/4 68/143/4
f 63/145/1 52/146/1 71/147/1 70/148/1
f 63/149/8 62/150/8 74/151/8 73/152/8
f 55/153/1 62/154/1 69/155/1 72/156/1
f 30/157/8 31/158/8 76/159/8 75/160/8
f 62/150/8 30/157/8 75/160/8 74/151/8
f 78/161/4 77/162/4 80/163/4 79/164/4
f 31/158/8 63/149/8 73/152/8 76/159/8
f 82/165/1 81/166/1 84/167/1 83/168/1
f 85/169/8 86/170/8 88/171/8 87/172/8
f 71/116/4 72/173/4 83/174/4 84/117/4
f 68/175/18 65/29/18 78/32/18 79/176/18
f 74/177/5 75/178/5 88/179/5 86/180/5
f 69/181/2 70/115/2 81/118/2 82/182/2
f 75/178/13 76/81/13 87/84/13 88/179/13
f 66/30/1 67/183/1 80/184/1 77/31/1
f 73/82/22 74/177/22 86/180/22 85/83/22
f 72/173/5 69/181/5 82/182/5 83/174/5
f 62/154/1 63/145/1 70/148/1 69/155/1
f 67/183/3 68/175/3 79/176/3 80/184/3
f 61/120/5 58/123/5 26/126/5 29/121/5
f 59/130/3 64/111/3 32/114/3 27/131/3
f 52/146/1 55/153/1 72/156/1 71/147/1
