# Blender 4.2.0
# www.blender.org
mtllib Fridge.mtl
g Fridge_Fridge
v -0.416056 -0.001878 0.252267
v -0.451248 -0.001878 0.219427
v -0.441661 -0.001878 0.241947
v -0.463881 0.047733 0.300000
v -0.498983 0.047733 0.267283
v -0.489421 0.047733 0.289719
v -0.451248 2.200000 0.219427
v -0.416056 2.200000 0.252267
v -0.441661 2.200000 0.241947
v -0.498983 2.152267 0.267283
v -0.463881 2.152267 0.300000
v -0.489421 2.152267 0.289719
v -0.452267 -0.001878 -0.417032
v -0.416056 -0.001878 -0.452267
v -0.441661 -0.001878 -0.441947
v -0.500000 0.047733 -0.464897
v -0.463881 0.047733 -0.500000
v -0.489421 0.047733 -0.489719
v -0.416056 2.200000 -0.452267
v -0.452267 2.200000 -0.417032
v -0.441661 2.200000 -0.441947
v -0.463881 2.152267 -0.500000
v -0.500000 2.152267 -0.464897
v -0.489421 2.152267 -0.489718
v 0.451248 -0.001878 0.219427
v 0.416056 -0.001878 0.252267
v 0.441661 -0.001878 0.241947
v 0.498983 0.047733 0.267283
v 0.463881 0.047733 0.300000
v 0.489421 0.047733 0.289719
v 0.416056 2.200000 0.252267
v 0.451248 2.200000 0.219427
v 0.441661 2.200000 0.241947
v 0.463881 2.152267 0.300000
v 0.498983 2.152267 0.267283
v 0.489421 2.152267 0.289719
v 0.416056 -0.001878 -0.452267
v 0.452267 -0.001878 -0.417032
v 0.441661 -0.001878 -0.441947
v 0.463881 0.047733 -0.500000
v 0.500000 0.047733 -0.464897
v 0.489421 0.047733 -0.489719
v 0.452267 2.200000 -0.417032
v 0.416056 2.200000 -0.452267
v 0.441661 2.200000 -0.441947
v 0.500000 2.152267 -0.464897
v 0.463881 2.152267 -0.500000
v 0.489421 2.152267 -0.489718
v 0.485504 0.812298 -0.453359
v 0.449252 0.812298 -0.488403
v 0.474886 0.812298 -0.478139
v 0.449252 0.846343 -0.488403
v 0.485504 0.846343 -0.453359
v 0.474886 0.846343 -0.478139
v -0.485504 0.846343 -0.453359
v -0.449252 0.846343 -0.488403
v -0.474886 0.846343 -0.478139
v -0.449252 0.812298 -0.488403
v -0.485504 0.812298 -0.453359
v -0.474886 0.812298 -0.478139
v -0.463821 0.811790 0.300000
v -0.498981 0.811790 0.267314
v -0.489404 0.811790 0.289729
v -0.463821 0.846851 0.300000
v -0.498981 0.846851 0.267314
v -0.489404 0.846851 0.289729
v -0.500000 0.811790 -0.464930
v -0.463821 0.811790 -0.500000
v -0.489404 0.811790 -0.489729
v -0.500000 0.846851 -0.464930
v -0.463821 0.846851 -0.500000
v -0.489404 0.846851 -0.489729
v 0.498981 0.846851 0.267314
v 0.463821 0.846851 0.300000
v 0.489404 0.846851 0.289729
v 0.498981 0.811790 0.267314
v 0.463821 0.811790 0.300000
v 0.489404 0.811790 0.289729
v 0.463821 0.846851 -0.500000
v 0.500000 0.846851 -0.464930
v 0.489404 0.846851 -0.489729
v 0.463821 0.811790 -0.500000
v 0.500000 0.811790 -0.464930
v 0.489404 0.811790 -0.489729
v -0.484483 0.812298 0.255741
v -0.449252 0.812298 0.288403
v -0.474886 0.812298 0.278139
v -0.449252 0.846343 0.288403
v -0.484483 0.846343 0.255741
v -0.474886 0.846343 0.278139
v 0.484483 0.846343 0.255741
v 0.449252 0.846343 0.288403
v 0.474886 0.846343 0.278139
v 0.449252 0.812298 0.288403
v 0.484483 0.812298 0.255741
v 0.474886 0.812298 0.278139
v -0.419698 2.200000 -0.426600
v -0.419348 2.200000 0.229068
v 0.419698 2.200000 -0.426600
v 0.419348 2.200000 0.229068
v -0.476714 0.047733 0.284296
v -0.486276 0.047733 0.261860
v -0.486276 2.152267 0.261860
v -0.476714 2.152267 0.284296
v -0.426211 0.476699 0.351814
v -0.426211 0.778442 0.351814
v -0.426211 0.476699 0.314617
v -0.426211 0.778442 0.314617
v -0.389014 0.476699 0.351814
v -0.389014 0.778442 0.351814
v -0.389014 0.476699 0.314617
v -0.389014 0.778442 0.314617
v -0.426211 0.509664 0.351814
v -0.426211 0.745477 0.351814
v -0.426211 0.745477 0.314617
v -0.426211 0.509664 0.314617
v -0.389014 0.745477 0.314617
v -0.389014 0.509664 0.314617
v -0.389014 0.745477 0.351814
v -0.389014 0.509664 0.351814
v -0.426211 0.509664 0.278515
v -0.426211 0.476699 0.278515
v -0.389014 0.476699 0.278515
v -0.426211 0.778442 0.278515
v -0.389014 0.778442 0.278515
v -0.389014 0.509664 0.278515
v -0.426211 0.745477 0.278515
v -0.389014 0.745477 0.278515
v -0.426211 0.886699 0.351814
v -0.426211 1.188442 0.351814
v -0.426211 0.886699 0.314617
v -0.426211 1.188442 0.314617
v -0.389014 0.886699 0.351814
v -0.389014 1.188442 0.351814
v -0.389014 0.886699 0.314617
v -0.389014 1.188442 0.314617
v -0.426211 0.919664 0.351814
v -0.426211 1.155477 0.351814
v -0.426211 1.155477 0.314617
v -0.426211 0.919664 0.314617
v -0.389014 1.155477 0.314617
v -0.389014 0.919664 0.314617
v -0.389014 1.155477 0.351814
v -0.389014 0.919664 0.351814
v -0.426211 0.919664 0.278515
v -0.426211 0.886699 0.278515
v -0.389014 0.886699 0.278515
v -0.426211 1.188442 0.278515
v -0.389014 1.188442 0.278515
v -0.389014 0.919664 0.278515
v -0.426211 1.155477 0.278515
v -0.389014 1.155477 0.278515
v -0.426047 -0.001878 -0.420555
v 0.426047 -0.001878 -0.420555
v -0.425087 -0.001878 0.222942
v 0.425087 -0.001878 0.222942
vn -0.0833 0.7452 -0.6617
vn 0.0833 0.7452 -0.6617
vn 0.1528 0.7712 -0.6180
vn -0.1528 0.7712 -0.6180
vn 0.6591 0.7470 -0.0869
vn 0.6590 0.7469 0.0884
vn 0.6138 0.7732 0.1594
vn 0.6138 0.7733 -0.1588
vn -1.0000 -0.0000 0.0014
vn -0.9799 -0.0000 -0.1996
vn 0.0833 0.7452 0.6617
vn -0.0833 0.7452 0.6617
vn -0.1528 0.7712 0.6180
vn 0.1528 0.7712 0.6180
vn 0.0088 0.9994 -0.0327
vn -0.0088 0.9994 -0.0327
vn -0.0035 0.9992 -0.0394
vn 0.0035 0.9992 -0.0394
vn -0.0858 -0.7325 0.6753
vn 0.0858 -0.7325 0.6753
vn 0.1559 -0.7588 0.6324
vn -0.1559 -0.7588 0.6324
vn -0.0000 1.0000 -0.0000
vn -0.1900 -0.0000 -0.9818
vn 0.1900 -0.0000 -0.9818
vn 0.9799 -0.0000 -0.1996
vn 0.9796 -0.0000 0.2010
vn -0.6590 0.7469 0.0883
vn -0.6591 0.7470 -0.0869
vn -0.6138 0.7733 -0.1588
vn -0.6138 0.7732 0.1594
vn -0.6728 -0.7344 -0.0895
vn -0.6727 -0.7343 0.0910
vn -0.6281 -0.7609 0.1627
vn -0.6281 -0.7610 -0.1621
vn 0.6727 -0.7343 0.0910
vn 0.6728 -0.7344 -0.0895
vn 0.6281 -0.7610 -0.1621
vn 0.6281 -0.7609 0.1627
vn 0.0858 -0.7325 -0.6753
vn -0.0858 -0.7325 -0.6753
vn -0.1559 -0.7588 -0.6324
vn 0.1559 -0.7588 -0.6324
vn 0.0290 0.9996 0.0075
vn 0.0290 0.9996 -0.0075
vn 0.0318 0.9995 -0.0041
vn 0.0318 0.9995 0.0041
vn 0.1900 -0.0000 0.9818
vn -0.1900 -0.0000 0.9818
vn 0.0088 -0.9994 0.0327
vn -0.0088 -0.9994 0.0327
vn -0.0035 -0.9992 0.0394
vn 0.0035 -0.9992 0.0394
vn -0.0088 0.9994 0.0327
vn 0.0088 0.9994 0.0327
vn 0.0035 0.9992 0.0394
vn -0.0035 0.9992 0.0394
vn 0.1893 -0.0000 0.9819
vn -0.1893 -0.0000 0.9819
vn -0.9636 -0.0011 0.2675
vn -0.9797 -0.0000 -0.2003
vn -0.9636 0.0018 0.2674
vn -0.0350 -0.9994 -0.0000
vn -0.0290 -0.9996 -0.0075
vn -0.0318 -0.9995 -0.0041
vn 0.0290 -0.9996 -0.0075
vn 0.0290 -0.9996 0.0075
vn 0.0318 -0.9995 0.0041
vn 0.0318 -0.9995 -0.0041
vn 0.9797 -0.0000 -0.2003
vn 0.9794 -0.0000 0.2017
vn -0.0088 -0.9994 -0.0327
vn 0.0088 -0.9994 -0.0327
vn 0.0035 -0.9992 -0.0394
vn -0.0035 -0.9992 -0.0394
vn -0.0290 0.9996 -0.0075
vn -0.0350 0.9994 -0.0000
vn -0.0318 0.9995 -0.0041
vn -0.1893 -0.0000 -0.9819
vn 0.1893 -0.0000 -0.9819
vn -0.4133 -0.8060 -0.4238
vn -0.4151 -0.8060 -0.4221
vn -0.4151 -0.8060 0.4221
vn -0.4133 -0.8060 0.4238
vn -0.4029 0.8167 0.4132
vn -0.4047 0.8167 0.4115
vn -0.4047 0.8167 -0.4115
vn -0.4029 0.8167 -0.4132
vn 0.4133 -0.8060 -0.4238
vn 0.4151 -0.8060 -0.4221
vn 0.4047 0.8167 -0.4115
vn 0.4029 0.8167 -0.4132
vn 0.4133 -0.8060 0.4238
vn 0.4151 -0.8060 0.4221
vn 0.4047 0.8167 0.4115
vn 0.4029 0.8167 0.4132
vn -0.3717 -0.0000 0.9283
vn -0.9194 0.0027 0.3934
vn -0.9194 -0.0016 0.3934
vn -0.9192 -0.0000 -0.3939
vn -0.3717 -0.0000 -0.9283
vn 0.9192 -0.0000 -0.3939
vn 0.3717 -0.0000 -0.9283
vn 0.3717 -0.0000 0.9283
vn 0.9192 -0.0000 0.3939
vn 0.0196 -0.9996 0.0192
vn 0.0184 -0.9996 0.0207
vn -0.0117 -0.9995 0.0292
vn -0.0196 -0.9996 -0.0192
vn -0.0184 -0.9996 -0.0207
vn 0.0184 -0.9996 -0.0207
vn 0.0197 -0.9996 -0.0192
vn -0.3730 -0.0000 0.9278
vn 0.5298 -0.0016 0.8481
vn -0.3730 -0.0000 -0.9278
vn -0.9198 -0.0000 -0.3925
vn 0.9198 -0.0000 0.3925
vn 0.3730 -0.0000 0.9278
vn -0.5299 -0.0028 -0.8481
vn 0.9198 -0.0000 -0.3925
vn 0.3730 -0.0000 -0.9278
vn -0.0117 0.9995 0.0292
vn -0.0197 0.9996 -0.0192
vn -0.0184 0.9996 -0.0207
vn 0.0184 0.9996 0.0207
vn 0.0196 0.9996 0.0192
vn 0.0184 0.9996 -0.0207
vn 0.0196 0.9996 -0.0192
vn -0.0000 -1.0000 -0.0000
vn -0.9195 -0.0031 0.3930
vn -0.9195 0.0053 0.3930
vn 0.5298 0.0028 0.8481
vn -0.5299 0.0016 -0.8481
vn -1.0000 -0.0000 -0.0000
vn 1.0000 -0.0000 -0.0000
vn -0.0000 -0.0000 1.0000
vn -0.0000 -0.0000 -1.0000
vt 0.565532 0.715134
vt 0.565351 0.935253
vt 0.547417 0.948712
vt 0.547339 0.701534
vt 0.574753 0.944948
vt 0.742695 0.944712
vt 0.756112 0.962822
vt 0.561249 0.962822
vt 0.213376 0.013957
vt 0.214649 0.364932
vt 0.017794 0.365650
vt 0.019727 0.028049
vt 0.751484 0.935334
vt 0.752275 0.715720
vt 0.770228 0.702253
vt 0.769533 0.948851
vt 0.983309 0.265650
vt 0.978159 0.029041
vt 0.981413 0.032527
vt 0.986286 0.262146
vt 0.028586 0.405998
vt 0.028586 0.626661
vt 0.010329 0.639344
vt 0.010329 0.393315
vt 0.575042 0.705382
vt 0.572408 0.714107
vt 0.568172 0.708058
vt 0.779850 0.017502
vt 0.779850 0.277899
vt 0.262238 0.355213
vt 0.246315 0.010329
vt 0.509550 0.010329
vt 0.499424 0.347585
vt 0.448734 0.963624
vt 0.244861 0.959364
vt 0.244592 0.772879
vt 0.441043 0.757248
vt 0.749372 0.016099
vt 0.751596 0.359446
vt 0.544075 0.353110
vt 0.561786 0.015873
vt 0.985941 0.382357
vt 0.984664 0.588624
vt 0.792271 0.578462
vt 0.788281 0.381125
vt 0.743480 0.706287
vt 0.561532 0.687362
vt 0.757021 0.688175
vt 0.169912 0.405834
vt 0.170115 0.574614
vt 0.151859 0.587306
vt 0.151654 0.393143
vt 0.211156 0.405178
vt 0.210953 0.573957
vt 0.192695 0.586649
vt 0.192900 0.392486
vt 0.053366 0.626661
vt 0.053366 0.405998
vt 0.071622 0.393315
vt 0.071622 0.639344
vt 0.240857 0.956716
vt 0.240818 0.775462
vt 0.547339 0.388237
vt 0.744014 0.396472
vt 0.754782 0.632612
vt 0.550171 0.648729
vt 0.510141 0.386182
vt 0.272533 0.387758
vt 0.276057 0.384543
vt 0.506704 0.383149
vt 0.747188 0.399753
vt 0.757819 0.628905
vt 0.092281 0.631901
vt 0.092281 0.393631
vt 0.101309 0.393631
vt 0.101309 0.631901
vt 0.790886 0.882553
vt 0.790886 0.694511
vt 0.799914 0.694511
vt 0.799914 0.882553
vt 0.519412 0.729883
vt 0.256307 0.726803
vt 0.022079 0.023979
vt 0.210034 0.010329
vt 0.564354 0.012073
vt 0.746746 0.012086
vt 0.829601 0.694511
vt 0.829601 0.882553
vt 0.820573 0.882553
vt 0.820573 0.694511
vt 0.496106 0.350729
vt 0.265877 0.358303
vt 0.981420 0.592288
vt 0.794687 0.582460
vt 0.121967 0.631901
vt 0.121967 0.393631
vt 0.130995 0.393631
vt 0.130995 0.631901
vt 0.051305 0.398973
vt 0.069570 0.386309
vt 0.153773 0.386309
vt 0.172036 0.398975
vt 0.012382 0.386309
vt 0.030647 0.398973
vt 0.172036 0.580813
vt 0.153776 0.593483
vt 0.749661 0.708704
vt 0.767864 0.695059
vt 0.763400 0.690386
vt 0.549730 0.694247
vt 0.554498 0.689793
vt 0.213077 0.580817
vt 0.194814 0.593483
vt 0.069570 0.646350
vt 0.051305 0.633686
vt 0.554260 0.960373
vt 0.567944 0.942259
vt 0.549781 0.955891
vt 0.030646 0.633686
vt 0.012382 0.646350
vt 0.194817 0.386309
vt 0.213077 0.398978
vt 0.767145 0.956079
vt 0.748867 0.942333
vt 0.762478 0.960647
vt 0.092281 0.386309
vt 0.101309 0.386309
vt 0.799914 0.889015
vt 0.790886 0.889015
vt 0.790886 0.687362
vt 0.799914 0.687362
vt 0.130995 0.639223
vt 0.121967 0.639223
vt 0.820573 0.687362
vt 0.829601 0.687362
vt 0.121967 0.386309
vt 0.130995 0.386309
vt 0.101309 0.639223
vt 0.092281 0.639223
vt 0.829601 0.889015
vt 0.820573 0.889015
vt 0.555665 0.014836
vt 0.558064 0.010329
vt 0.513754 0.381125
vt 0.517180 0.385061
vt 0.265460 0.386596
vt 0.268846 0.382630
vt 0.012836 0.027274
vt 0.014939 0.022567
vt 0.258638 0.360467
vt 0.255097 0.356500
vt 0.754047 0.010329
vt 0.756376 0.015113
vt 0.506378 0.348589
vt 0.503107 0.352510
vt 0.249139 0.726459
vt 0.218363 0.013800
vt 0.218363 0.364918
vt 0.239021 0.010668
vt 0.010329 0.365600
vt 0.243455 0.766801
vt 0.440495 0.750541
vt 0.547642 0.381125
vt 0.745020 0.389539
vt 0.550759 0.656134
vt 0.756258 0.639798
vt 0.756795 0.644783
vt 0.551055 0.659849
vt 0.780270 0.010329
vt 0.979314 0.021972
vt 0.785420 0.579352
vt 0.780821 0.381290
vt 0.537338 0.352748
vt 0.526680 0.729683
vt 0.448557 0.971335
vt 0.243801 0.966415
vt 0.984618 0.272721
vt 0.780302 0.285262
vt 0.759192 0.359389
vt 0.516679 0.010546
vt 0.760163 0.636127
vt 0.983269 0.025333
vt 0.787603 0.584004
vt 0.239021 0.769242
vt 0.748917 0.392782
vt 0.988486 0.269171
vt 0.239021 0.964021
vt 0.196261 0.679827
vt 0.188082 0.677250
vt 0.187174 0.670488
vt 0.193599 0.673223
vt 0.572153 0.936275
vt 0.746096 0.714781
vt 0.745345 0.936252
vt 0.260630 0.386230
vt 0.245542 0.726286
vt 0.239193 0.725980
vt 0.254286 0.385924
vt 0.757318 0.651337
vt 0.551578 0.666409
vt 0.245371 0.729883
vt 0.239021 0.729577
vt 0.547862 0.666703
vt 0.547339 0.660144
vt 0.989671 0.382380
vt 0.989671 0.588795
vt 0.919658 0.859314
vt 0.919658 0.868056
vt 0.909794 0.868056
vt 0.909794 0.859314
vt 0.789714 0.315494
vt 0.779850 0.315494
vt 0.779850 0.305920
vt 0.789714 0.305920
vt 0.869987 0.859314
vt 0.869987 0.868056
vt 0.860123 0.868056
vt 0.860123 0.859314
vt 0.850259 0.868056
vt 0.850259 0.859314
vt 0.789714 0.325358
vt 0.779850 0.325358
vt 0.161518 0.624005
vt 0.151654 0.624005
vt 0.151654 0.614141
vt 0.161518 0.614141
vt 0.860123 0.788038
vt 0.860123 0.796780
vt 0.850259 0.796780
vt 0.850259 0.788038
vt 0.869987 0.788038
vt 0.869987 0.796780
vt 0.879561 0.788038
vt 0.879561 0.796780
vt 0.509779 0.760115
vt 0.509779 0.822649
vt 0.499915 0.822649
vt 0.499915 0.760115
vt 0.919658 0.788038
vt 0.919658 0.796780
vt 0.909794 0.796780
vt 0.909794 0.788038
vt 0.499915 0.750541
vt 0.509779 0.750541
vt 0.879561 0.859314
vt 0.879561 0.868056
vt 0.161518 0.633579
vt 0.151654 0.633579
vt 0.509779 0.832223
vt 0.499915 0.832223
vt 0.900220 0.868056
vt 0.900220 0.859314
vt 0.900220 0.796780
vt 0.900220 0.788038
vt 0.919658 0.758637
vt 0.919658 0.767379
vt 0.909794 0.767379
vt 0.909793 0.758637
vt 0.790685 0.622520
vt 0.780821 0.622520
vt 0.780821 0.612947
vt 0.790685 0.612947
vt 0.869987 0.758637
vt 0.869987 0.767379
vt 0.860123 0.767379
vt 0.860123 0.758637
vt 0.850259 0.767379
vt 0.850259 0.758637
vt 0.790685 0.632384
vt 0.780821 0.632384
vt 0.182176 0.623715
vt 0.192041 0.623715
vt 0.192041 0.633579
vt 0.182176 0.633579
vt 0.860123 0.687362
vt 0.860123 0.696104
vt 0.850259 0.696104
vt 0.850259 0.687362
vt 0.869987 0.687362
vt 0.869987 0.696104
vt 0.879561 0.687362
vt 0.879561 0.696104
vt 0.479256 0.760115
vt 0.479256 0.822649
vt 0.469392 0.822649
vt 0.469392 0.760115
vt 0.919658 0.687362
vt 0.919658 0.696104
vt 0.909793 0.696104
vt 0.909793 0.687362
vt 0.469392 0.750541
vt 0.479256 0.750541
vt 0.879561 0.758637
vt 0.879561 0.767379
vt 0.182176 0.614141
vt 0.192041 0.614141
vt 0.479256 0.832223
vt 0.469392 0.832223
vt 0.900220 0.767379
vt 0.900220 0.758637
vt 0.900220 0.696104
vt 0.900220 0.687362
vt 0.022122 0.677498
vt 0.023029 0.670750
vt 0.014559 0.679826
vt 0.017221 0.673223
vt 0.196261 0.894431
vt 0.188082 0.897008
vt 0.022122 0.896760
vt 0.014559 0.894431
vt 0.193599 0.901035
vt 0.187174 0.903770
vt 0.023029 0.903507
vt 0.017221 0.901035
s 1
g Fridge_Fridge
usemtl Fridge
f 19/1/1 44/2/2 47/3/3 22/4/4
f 43/5/5 32/6/6 35/7/7 46/8/8
f 65/9/9 10/10/9 23/11/10 70/12/10
f 31/13/11 8/14/12 11/15/13 34/16/14
f 82/17/15 68/18/16 58/19/17 50/20/18
f 1/21/19 26/22/20 29/23/21 4/24/22
f 20/25/23 97/26/23 19/1/23 21/27/23
f 17/28/24 68/18/24 82/17/25 40/29/25
f 71/30/24 22/31/24 47/32/25 79/33/25
f 41/34/26 83/35/26 76/36/27 28/37/27
f 80/38/26 46/39/26 35/40/27 73/41/27
f 5/42/9 62/43/9 67/44/10 16/45/10
f 7/46/28 20/25/29 23/47/30 10/48/31
f 13/49/32 2/50/33 5/51/34 16/52/35
f 25/53/36 38/54/37 41/55/38 28/56/39
f 37/57/40 14/58/41 17/59/42 40/60/43
f 76/36/44 83/35/45 49/61/46 95/62/47
f 29/63/48 77/64/48 61/65/49 4/66/49
f 74/67/50 64/68/51 88/69/52 92/70/53
f 61/65/54 77/64/55 94/71/56 86/72/57
f 92/73/58 88/74/59 86/75/59 94/76/58
f 89/77/60 55/78/61 59/79/61 85/80/62
f 74/67/48 34/81/48 11/82/49 64/68/49
f 65/9/63 70/12/64 55/83/65 89/84/63
f 80/38/66 73/41/67 91/85/68 53/86/69
f 53/87/70 91/88/71 95/89/71 49/90/70
f 71/30/72 79/33/73 52/91/74 56/92/75
f 67/44/76 62/43/77 85/93/77 59/94/78
f 56/95/79 52/96/80 50/97/80 58/98/79
f 17/59/42 14/58/41 15/99/81 18/100/82
f 18/101/82 15/102/81 13/49/32 16/52/35
f 1/21/19 4/24/22 6/103/83 3/104/84
f 3/105/84 6/106/83 5/51/34 2/50/33
f 11/15/13 8/14/12 9/107/85 12/108/86
f 12/109/86 9/107/85 7/46/28 10/48/31
f 19/1/1 22/4/4 24/110/87 21/27/88
f 21/27/88 24/111/87 23/47/30 20/25/29
f 41/55/38 38/54/37 39/112/89 42/113/90
f 42/114/90 39/115/89 37/57/40 40/60/43
f 43/5/5 46/8/8 48/116/91 45/117/92
f 45/117/92 48/118/91 47/3/3 44/2/2
f 29/23/21 26/22/20 27/119/93 30/120/94
f 30/121/94 27/122/93 25/53/36 28/56/39
f 31/13/11 34/16/14 36/123/95 33/124/96
f 33/124/96 36/125/95 35/7/7 32/6/6
f 86/75/59 88/74/59 90/126/97 87/127/97
f 87/128/98 90/129/99 89/77/60 85/80/62
f 59/79/61 55/78/61 57/130/100 60/131/100
f 60/132/101 57/133/101 56/95/79 58/98/79
f 53/87/70 49/90/70 51/134/102 54/135/102
f 54/136/103 51/137/103 50/97/80 52/96/80
f 92/73/58 94/76/58 96/138/104 93/139/104
f 93/140/105 96/141/105 95/89/71 91/88/71
f 91/85/68 73/41/67 75/142/106 93/143/107
f 93/144/107 75/145/106 74/67/50 92/70/53
f 66/146/108 90/147/108 88/69/52 64/68/51
f 55/83/65 70/12/64 72/148/109 57/149/110
f 57/150/110 72/151/109 71/30/72 56/92/75
f 80/38/66 53/86/69 54/152/111 81/153/112
f 81/154/112 54/155/111 52/91/74 79/33/73
f 64/68/49 11/82/49 12/156/113 66/146/113
f 10/10/114 65/9/114 89/157/114 103/158/114
f 22/31/24 71/30/24 72/151/115 24/159/115
f 24/160/116 72/148/116 70/12/10 23/11/10
f 28/37/27 76/36/27 78/161/117 30/162/117
f 30/163/118 78/164/118 77/64/48 29/63/48
f 6/165/119 63/166/119 87/167/119 101/168/119
f 63/166/113 6/165/113 4/66/49 61/65/49
f 68/18/24 17/28/24 18/169/115 69/170/115
f 69/171/116 18/172/116 16/45/10 67/44/10
f 73/41/27 35/40/27 36/173/117 75/142/117
f 75/145/118 36/174/118 34/81/48 74/67/48
f 83/35/26 41/34/26 42/175/120 84/176/120
f 84/177/121 42/178/121 40/29/25 82/17/25
f 46/39/26 80/38/26 81/153/120 48/179/120
f 48/180/121 81/154/121 79/33/25 47/32/25
f 61/65/54 86/72/57 87/181/122 63/166/122
f 58/19/17 68/18/16 69/170/123 60/182/124
f 60/183/124 69/171/123 67/44/76 59/94/78
f 76/36/44 95/62/47 96/184/125 78/161/126
f 78/164/126 96/185/125 94/71/56 77/64/55
f 82/17/15 50/20/18 51/186/127 84/177/128
f 84/176/128 51/187/127 49/61/46 83/35/45
f 14/188/129 153/189/129 13/190/129 15/191/129
f 97/26/23 99/192/23 44/2/23 19/1/23
f 99/192/23 43/5/23 45/117/23 44/2/23
f 7/46/23 98/193/23 97/26/23 20/25/23
f 98/193/23 100/194/23 99/192/23 97/26/23
f 100/194/23 32/6/23 43/5/23 99/192/23
f 9/107/23 8/14/23 98/193/23 7/46/23
f 8/14/23 31/13/23 100/194/23 98/193/23
f 31/13/23 33/124/23 32/6/23 100/194/23
f 90/195/99 104/196/130 103/197/130 89/198/60
f 85/199/62 102/200/131 101/168/131 87/167/98
f 12/201/129 10/202/129 103/197/129 104/196/129
f 5/203/23 6/204/23 101/168/23 102/200/23
f 62/43/132 5/42/132 102/205/132 85/206/132
f 66/146/133 12/156/133 104/196/133 90/195/133
f 114/207/134 106/208/134 108/209/134 115/210/134
f 111/211/129 107/212/129 122/213/129 123/214/129
f 117/215/135 112/216/135 110/217/135 119/218/135
f 119/218/136 110/217/136 106/219/136 114/220/136
f 107/212/129 111/211/129 109/221/129 105/222/129
f 112/223/23 108/224/23 106/225/23 110/226/23
f 109/227/136 120/228/136 113/229/136 105/230/136
f 120/228/136 119/218/136 114/220/136 113/229/136
f 111/231/135 118/232/135 120/228/135 109/227/135
f 118/232/135 117/215/135 119/218/135 120/228/135
f 118/232/135 111/231/135 123/233/135 126/234/135
f 116/235/137 115/236/137 117/237/137 118/238/137
f 105/239/134 113/240/134 116/241/134 107/242/134
f 113/240/134 114/207/134 115/210/134 116/241/134
f 116/235/23 118/238/23 126/243/23 121/244/23
f 112/216/135 117/215/135 128/245/135 125/246/135
f 108/224/23 112/223/23 125/247/23 124/248/23
f 117/237/129 115/236/129 127/249/129 128/250/129
f 115/210/134 108/209/134 124/251/134 127/252/134
f 107/242/134 116/241/134 121/253/134 122/254/134
f 138/255/134 130/256/134 132/257/134 139/258/134
f 135/259/129 131/260/129 146/261/129 147/262/129
f 141/263/135 136/264/135 134/265/135 143/266/135
f 143/266/136 134/265/136 130/267/136 138/268/136
f 131/260/129 135/259/129 133/269/129 129/270/129
f 136/271/23 132/272/23 130/273/23 134/274/23
f 133/275/136 144/276/136 137/277/136 129/278/136
f 144/276/136 143/266/136 138/268/136 137/277/136
f 135/279/135 142/280/135 144/276/135 133/275/135
f 142/280/135 141/263/135 143/266/135 144/276/135
f 142/280/135 135/279/135 147/281/135 150/282/135
f 140/283/137 139/284/137 141/285/137 142/286/137
f 129/287/134 137/288/134 140/289/134 131/290/134
f 137/288/134 138/255/134 139/258/134 140/289/134
f 140/283/23 142/286/23 150/291/23 145/292/23
f 136/264/135 141/263/135 152/293/135 149/294/135
f 132/272/23 136/271/23 149/295/23 148/296/23
f 141/285/129 139/284/129 151/297/129 152/298/129
f 139/258/134 132/257/134 148/299/134 151/300/134
f 131/290/134 140/289/134 145/301/134 146/302/134
f 153/189/129 155/303/129 2/304/129 13/190/129
f 155/303/129 1/305/129 3/306/129 2/304/129
f 37/307/129 154/308/129 153/189/129 14/188/129
f 154/308/129 156/309/129 155/303/129 153/189/129
f 156/309/129 26/310/129 1/305/129 155/303/129
f 39/311/129 38/312/129 154/308/129 37/307/129
f 38/312/129 25/313/129 156/309/129 154/308/129
f 25/313/129 27/314/129 26/310/129 156/309/129
