# Blender 4.2.0
# www.blender.org
mtllib RightCornerWall.mtl
g Right_Corner_Wall_Right_Corner_Wall
v 0.200000 0.000000 -0.200000
v 0.199999 0.000000 2.000000
v 0.199998 4.000000 2.000000
v 0.199999 4.000000 -0.200000
v -0.400000 -0.000000 0.400778
v -0.400001 2.000000 2.000000
v -0.400001 2.000000 0.400000
v 0.199999 2.000000 2.000000
v 0.200000 2.000000 -0.200000
v -0.000001 4.000000 2.000000
v -0.000001 2.000000 2.000000
v 0.000000 2.000000 -0.200000
v 0.000001 0.000000 -0.000001
v 0.000000 4.000000 -0.000001
v 0.000001 0.000000 -0.200000
v 0.000000 4.000000 -0.200000
v -0.000001 -0.000000 2.000000
v 0.200000 2.000000 0.000001
v 0.199999 4.000000 0.000001
v 0.200000 0.000000 0.000000
v -0.400002 4.000000 2.000000
v -0.400001 4.000000 0.400000
v -0.400001 -0.000000 2.000000
v -0.433049 3.700000 0.433048
v -0.400002 4.000000 2.000000
v -0.400002 3.700000 2.000000
v -0.553342 4.000000 2.000000
v -0.553342 3.700000 2.000000
v -0.400001 4.000000 0.400000
v -0.553343 3.700000 0.553340
v -0.553343 4.000000 0.553340
v -0.400002 3.500000 2.000000
v -0.433049 3.700000 2.000000
v -0.433049 3.500000 2.000000
v -0.400001 3.500000 0.400000
v -0.433049 3.500000 0.433048
v -0.433049 3.700000 0.433048
v -1.399999 2.000000 -0.200001
v -1.399999 4.000000 0.399999
v -1.399999 -0.000000 -0.200001
v -1.399999 -0.000000 0.400291
v -1.399999 3.700000 0.399999
v -1.399999 4.000000 0.553339
v -1.399999 2.000000 0.399999
v -1.399999 3.700000 0.433047
v -1.399999 -0.000000 -0.000001
v -1.399999 4.000000 -0.200001
v -1.399999 3.700000 0.553339
v -1.399999 4.000000 0.399999
v -1.399999 3.500000 0.433047
v -1.399999 3.500000 0.399999
v -1.399999 4.000000 -0.000001
v -1.399999 2.000000 0.000001
vn -0.0001 0.0001 1.0000
vn -0.0000 -0.0000 1.0000
vn -0.0000 -1.0000 -0.0000
vn -0.0000 1.0000 -0.0000
vn -1.0000 -0.0000 -0.0000
vn 1.0000 -0.0000 -0.0000
vn -0.0000 -0.0000 -1.0000
vn -0.0002 0.0003 1.0000
vt 0.000000 0.499554
vt 0.000000 0.000446
vt 0.249553 0.000446
vt 0.249553 0.499554
vt 0.363518 0.497804
vt 0.136483 0.497693
vt 0.136483 0.406813
vt 0.454332 0.406813
vt 0.149836 0.499726
vt 0.099891 0.499726
vt 0.099891 0.000274
vt 0.149836 0.000274
vt 0.136364 0.366030
vt 0.500000 0.366030
vt 0.500000 0.454301
vt 0.045454 0.454301
vt 0.045668 0.406901
vt 0.000261 0.361494
vt 0.045668 0.361494
vt 0.000000 0.499726
vt 0.000000 0.000274
vt 0.099890 0.000274
vt 0.399286 0.499554
vt 0.000000 0.499554
vt 0.000000 0.000446
vt 0.399286 0.000446
vt 0.049969 0.000158
vt 0.049969 0.499842
vt 0.000000 0.499842
vt 0.000000 0.000158
vt 0.000000 0.499726
vt 0.000000 0.000274
vt 0.000488 0.008301
vt 0.499512 0.008301
vt 0.498048 0.496604
vt 0.000000 0.496604
vt -0.000000 0.499842
vt 0.000000 0.000158
vt 0.049969 0.000158
vt 0.500000 0.498437
vt 0.045455 0.498437
vt 0.454546 0.498246
vt 0.454546 0.454655
vt 0.500000 0.498246
vt 0.049968 0.000000
vt 0.049968 0.499684
vt 0.000000 0.499684
vt 0.000000 0.000000
vt 0.499501 0.499501
vt 0.000499 0.499501
vt 0.000499 0.000499
vt 0.499501 0.000499
vt 0.454332 0.361406
vt 0.499739 0.361406
vt 0.136659 0.497715
vt 0.499739 0.406901
vt 0.499739 0.497715
vt 0.000000 0.498437
vt 0.499739 0.361494
vt 0.136482 0.361406
vt 0.000000 0.499684
vt 0.000000 0.000000
vt 0.049968 0.000000
vt 0.049968 0.499684
vt 0.499501 0.499501
vt 0.000499 0.499501
vt 0.000499 0.000499
vt 1.000000 0.894123
vt 1.000000 0.965158
vt 0.502450 0.965158
vt 0.502450 0.894123
vt 0.998976 0.999051
vt 0.500668 0.999051
vt 0.548425 0.968691
vt 0.998976 0.968691
vt 0.951955 0.968712
vt 0.999845 1.000000
vt 0.687539 1.000000
vt 0.687539 0.968712
vt 0.539885 0.891285
vt 0.501711 0.856703
vt 0.998979 0.847203
vt 0.998979 0.891285
vt 1.000000 0.893533
vt 1.000000 0.966462
vt 0.708541 0.966462
vt 0.708541 0.893533
vt 1.000000 0.816767
vt 1.000000 0.860219
vt 0.692309 0.860219
vt 0.692309 0.816767
vt 0.510377 1.000000
vt 0.500417 0.991150
vt 0.982658 0.991150
vt 0.982658 1.000000
vt 1.000000 0.817245
vt 1.000000 0.859288
vt 0.502362 0.859288
vt 0.502362 0.817245
vt 0.498048 0.496604
vt 0.186769 0.496604
vt 0.187622 0.008301
vt 0.136364 0.454655
vt 0.136364 0.367473
vt 0.363636 0.367473
vt 0.349800 0.000499
vt 0.349800 0.499501
vt 0.000499 0.499501
vt 0.000499 0.000499
vt 0.805102 0.991614
vt 0.805102 1.000000
vt 0.510069 1.000000
vt 0.519819 0.991613
vt 0.691492 0.893114
vt 0.691492 0.853012
vt 0.999844 0.858825
vt 0.961483 0.893114
vt 0.136364 0.498246
vt 0.150200 0.499501
vt 0.150200 0.000499
vt 0.499501 0.000499
vt 0.499501 0.499501
vt 0.538936 0.965101
vt 0.502581 0.965101
vt 0.502581 0.893975
vt 0.538936 0.893975
vt 0.502431 0.816691
vt 0.509034 0.816691
vt 0.509034 0.856645
vt 0.502431 0.856645
vt 0.670656 0.893667
vt 0.707911 0.893667
vt 0.707911 0.966554
vt 0.670656 0.966554
vt 0.691811 0.816565
vt 0.691811 0.860250
vt 0.684593 0.860250
vt 0.684593 0.816565
vt 0.049956 0.499779
vt 0.000000 0.499779
vt 0.000000 0.000221
vt 0.049956 0.000221
vt 0.050237 0.499688
vt 0.050237 0.000312
vt 0.150112 0.000312
vt 0.150112 0.499688
vt 0.049956 0.499779
vt 0.000000 0.499779
vt 0.000000 0.000221
vt 0.049956 0.000221
vt 0.150377 0.499688
vt 0.050503 0.499688
vt 0.050502 0.000312
vt 0.150450 0.000312
s 1
g Right_Corner_Wall_Tavern_Interior_Atlas
usemtl Tavern_Interior_Atlas
f 7/1/1 22/2/2 49/3/2 44/4/1
f 5/5/3 41/6/3 46/7/3 13/8/3
f 3/9/2 10/10/2 11/11/2 8/12/2
f 22/13/4 21/14/4 10/15/4 14/16/4
f 13/17/3 1/18/3 20/19/3
f 11/10/2 6/20/2 23/21/2 17/22/2
f 21/23/5 22/24/5 7/25/5 6/26/5
f 9/27/6 4/28/6 19/29/6 18/30/6
f 11/11/2 10/10/2 21/31/2 6/32/2
f 5/33/5 23/34/5 6/35/5 7/36/5
f 11/10/2 17/22/2 2/12/2 8/9/2
f 18/37/6 20/38/6 1/39/6 9/28/6
f 14/16/4 10/15/4 3/40/4 19/41/4
f 16/42/4 14/43/4 4/44/4
f 12/45/7 16/46/7 4/47/7 9/48/7
f 19/49/6 3/50/6 8/51/6 18/52/6
f 13/8/3 15/53/3 1/54/3
f 5/55/3 13/17/3 17/56/3 23/57/3
f 19/41/4 4/58/4 14/16/4
f 17/56/3 13/17/3 20/19/3 2/59/3
f 13/8/3 46/7/3 40/60/3 15/53/3
f 9/61/7 1/62/7 15/63/7 12/64/7
f 8/52/6 2/65/6 20/66/6 18/67/6
f 28/68/5 27/69/5 31/70/5 30/71/5
f 25/72/4 29/73/4 31/74/4 27/75/4
f 31/76/4 29/77/4 39/78/4 43/79/4
f 30/80/3 24/81/3 26/82/3 28/83/3
f 30/84/2 31/85/2 43/86/2 48/87/2
f 36/88/2 37/89/2 45/90/2 50/91/2
f 36/92/3 35/93/3 32/94/3 34/95/3
f 34/96/5 33/97/5 37/98/5 36/99/5
f 7/100/1 44/101/1 41/102/8 5/34/8
f 52/103/4 49/104/4 22/105/4 14/43/4
f 40/106/7 38/107/7 12/108/7 15/109/7
f 50/110/3 51/111/3 35/112/3 36/113/3
f 48/114/3 42/115/3 24/116/3 30/117/3
f 47/118/4 52/103/4 14/43/4 16/42/4
f 38/119/7 47/120/7 16/121/7 12/122/7
f 25/123/2 27/124/2 28/125/2 26/126/2
f 34/127/2 32/128/2 26/129/2 33/130/2
f 42/131/5 48/132/5 43/133/5 39/134/5
f 50/135/5 45/136/5 42/137/5 51/138/5
f 52/139/5 47/140/5 38/141/5 53/142/5
f 52/143/5 53/144/5 44/145/5 49/146/5
f 53/147/5 38/148/5 40/149/5 46/150/5
f 44/151/5 53/152/5 46/153/5 41/154/5
