# Blender 4.2.0
# www.blender.org
mtllib SingleHangingCabinetLeft.mtl
g Single_Hanging_Cabinet_L_Single_Handing_Cabinet_L
v -0.458849 -0.643362 -0.027653
v -0.458849 0.774504 -0.027653
v -0.464220 -0.573489 -0.416650
v -0.464220 -0.573489 -0.138656
v -0.464220 0.704631 -0.138656
v -0.464220 0.704631 -0.416650
v -0.397286 -0.581799 0.008185
v -0.397286 0.712941 0.008185
v -0.397286 -0.581799 -0.012070
v -0.397286 0.712941 -0.012070
v -0.458849 -0.643362 -0.001370
v -0.449294 -0.633806 0.008185
v -0.449294 0.764948 0.008185
v -0.458849 0.774504 -0.001370
v -0.499979 -0.584979 -0.127166
v -0.488490 -0.573489 -0.138656
v -0.499979 0.716121 -0.127166
v -0.488490 0.704631 -0.138656
v -0.488490 -0.573489 -0.416650
v -0.499979 -0.584979 -0.428140
v -0.499979 0.716121 -0.428140
v -0.488490 0.704631 -0.416650
v -0.499979 -0.673872 -0.517034
v -0.489360 -0.673872 -0.527653
v -0.489360 -0.684492 -0.517034
v -0.489360 0.815634 -0.517034
v -0.489360 0.805015 -0.527653
v -0.499979 0.805015 -0.517034
v -0.487778 -0.684492 -0.038871
v -0.489360 -0.673872 -0.027653
v -0.499979 -0.673872 -0.038273
v -0.489360 0.805015 -0.027653
v -0.489360 0.815634 -0.038273
v -0.499979 0.805015 -0.038273
v -0.420277 -0.615196 -0.023624
v -0.420277 0.728252 -0.023624
v -0.420277 -0.615196 -0.475495
v -0.420277 0.728252 -0.475495
v -0.444479 0.160095 -0.046711
v -0.444479 0.212301 -0.046711
v -0.444479 0.160095 -0.519792
v -0.444479 0.212301 -0.519792
v -0.444479 -0.284184 -0.046711
v -0.444479 -0.231977 -0.046711
v -0.444479 -0.284184 -0.519792
v -0.444479 -0.231977 -0.519792
v 0.078849 -0.643362 -0.027653
v 0.078849 0.774504 -0.027653
v 0.084220 -0.573489 -0.416650
v 0.084220 -0.573489 -0.138656
v 0.084220 0.704631 -0.138656
v 0.084220 0.704631 -0.416650
v 0.017286 -0.581799 0.008185
v 0.017286 0.712941 0.008185
v 0.017286 -0.581799 -0.012070
v 0.017286 0.712941 -0.012070
v 0.078849 -0.643362 -0.001370
v 0.069294 -0.633806 0.008185
v 0.069294 0.764948 0.008185
v 0.078849 0.774504 -0.001370
v 0.119979 -0.584979 -0.127166
v 0.108490 -0.573489 -0.138656
v 0.119979 0.716121 -0.127166
v 0.108490 0.704631 -0.138656
v 0.108490 -0.573489 -0.416650
v 0.119979 -0.584979 -0.428140
v 0.119979 0.716121 -0.428140
v 0.108490 0.704631 -0.416650
v 0.119979 -0.673872 -0.517034
v 0.109360 -0.673872 -0.527653
v 0.109360 -0.684492 -0.517034
v 0.109360 0.815634 -0.517034
v 0.109360 0.805015 -0.527653
v 0.119979 0.805015 -0.517034
v 0.107778 -0.684492 -0.038871
v 0.109360 -0.673872 -0.027653
v 0.119979 -0.673872 -0.038273
v 0.109360 0.805015 -0.027653
v 0.109360 0.815634 -0.038273
v 0.119979 0.805015 -0.038273
v 0.040277 -0.615196 -0.023624
v 0.040277 0.728252 -0.023624
v 0.040277 -0.615196 -0.475495
v 0.040277 0.728252 -0.475495
v 0.064479 0.160095 -0.046711
v 0.064479 0.212301 -0.046711
v 0.064479 0.160095 -0.519792
v 0.064479 0.212301 -0.519792
v 0.064479 -0.284184 -0.046711
v 0.064479 -0.231977 -0.046711
v 0.064479 -0.284184 -0.519792
v 0.064479 -0.231977 -0.519792
vn -1.0000 -0.0000 -0.0000
vn -0.0000 -0.0000 -1.0000
vn -0.0000 -1.0000 -0.0000
vn -0.0000 -0.0000 1.0000
vn -0.0000 1.0000 -0.0000
vn 1.0000 -0.0000 -0.0000
vn -0.7071 -0.0000 0.7071
vn -0.0000 -0.7071 0.7071
vn -0.7071 -0.0000 -0.7071
vn -0.7071 0.7071 -0.0000
vn -0.7071 -0.7071 -0.0000
vn -0.5774 -0.5774 -0.5773
vn -0.5774 0.5773 -0.5773
vn -0.5382 -0.6487 0.5382
vn -0.5773 0.5773 0.5774
vn -0.6813 -0.7320 0.0011
vn -0.0000 0.7071 -0.7071
vn -0.0000 -0.7262 0.6875
vn -0.0000 -0.7071 -0.7071
vn -0.0000 0.7071 0.7071
vn 0.7071 -0.0000 0.7071
vn 0.7071 -0.0000 -0.7071
vn 0.7071 0.7071 -0.0000
vn 0.7071 -0.7071 -0.0000
vn 0.5774 -0.5773 -0.5773
vn 0.5774 0.5773 -0.5773
vn 0.5382 -0.6487 0.5382
vn 0.5773 0.5773 0.5774
vn 0.6813 -0.7320 0.0011
vn -0.0000 0.3269 -0.9450
vn -0.4490 -0.0000 -0.8935
vn -0.0000 -0.6023 -0.7982
vn 0.4490 -0.0000 -0.8935
vt 0.607355 0.337380
vt 0.607355 0.610966
vt 0.588661 0.629660
vt 0.588661 0.318686
vt 0.917614 0.006220
vt 0.917803 0.268160
vt 0.911684 0.263081
vt 0.912953 0.013448
vt 0.845155 0.271293
vt 0.849815 0.264064
vt 0.844965 0.009353
vt 0.851085 0.014432
vt 0.380951 0.008987
vt 0.380951 0.307128
vt 0.374535 0.313545
vt 0.374535 0.002571
vt 0.900241 0.288480
vt 0.900241 0.557234
vt 0.841781 0.557234
vt 0.841781 0.288480
vt 0.670648 0.610966
vt 0.689342 0.629660
vt 0.670648 0.337380
vt 0.689342 0.318686
vt 0.580362 0.318686
vt 0.580362 0.629660
vt 0.723256 0.622082
vt 0.712319 0.611146
vt 0.697641 0.603995
vt 0.697641 0.305853
vt 0.709477 0.305853
vt 0.709477 0.603995
vt 0.754012 0.609136
vt 0.742176 0.609136
vt 0.709477 0.609136
vt 0.697641 0.609136
vt 0.759153 0.279079
vt 0.759153 0.006830
vt 0.763413 0.006830
vt 0.763413 0.279079
vt 0.712319 0.307863
vt 0.712319 0.601985
vt 0.763413 0.002571
vt 0.739334 0.611146
vt 0.723256 0.318800
vt 0.723256 0.591049
vt 0.920988 0.002571
vt 0.920988 0.271749
vt 0.841781 0.005764
vt 0.841781 0.274942
vt 0.951326 0.592601
vt 0.953884 0.595118
vt 0.950731 0.595795
vt 0.015050 0.788575
vt 0.012016 0.787817
vt 0.014553 0.785542
vt 0.856006 0.595037
vt 0.852945 0.594018
vt 0.855454 0.591763
vt 0.112797 0.788079
vt 0.109611 0.788775
vt 0.110196 0.785542
vt 0.692500 0.318686
vt 0.692500 0.629660
vt 0.585503 0.629660
vt 0.585503 0.318686
vt 0.369393 0.097596
vt 0.274368 0.097596
vt 0.274368 0.380088
vt 0.369393 0.380088
vt 0.170522 0.480255
vt 0.090428 0.560349
vt 0.462392 0.714895
vt 0.454629 0.722658
vt 0.082665 0.568112
vt 0.763413 0.283339
vt 0.728397 0.622082
vt 0.542486 0.634801
vt 0.274368 0.475114
vt 0.374535 0.802752
vt 0.002571 0.648206
vt 0.274368 0.002571
vt 0.434587 0.316562
vt 0.440316 0.324395
vt 0.532717 0.324473
vt 0.538411 0.316532
vt 0.532726 0.607688
vt 0.538411 0.611903
vt 0.442412 0.607511
vt 0.436722 0.611812
s 0
g Single_Hanging_Cabinet_L_Hanging_Cabinet
usemtl Hanging_Cabinet
f 20/1/1 21/2/1 28/3/1 23/4/1
f 16/5/2 18/6/2 5/7/2 4/8/2
f 18/6/3 22/9/3 6/10/3 5/7/3
f 22/9/4 19/11/4 3/12/4 6/10/4
f 1/13/4 2/14/4 32/15/4 30/16/4
f 48/14/4 78/15/4 32/15/4 2/14/4
f 4/17/1 5/18/1 6/19/1 3/20/1
f 21/2/1 17/21/1 34/22/1 28/3/1
f 17/21/1 15/23/1 31/24/1 34/22/1
f 70/25/2 24/25/2 27/26/2 73/26/2
f 54/27/4 59/28/4 13/28/4 8/27/4
f 2/29/1 1/30/1 11/31/1 14/32/1
f 47/33/3 57/34/3 11/34/3 1/33/3
f 14/35/5 60/35/5 48/36/5 2/36/5
f 8/37/6 7/38/6 9/39/6 10/40/6
f 12/41/7 13/42/7 14/32/7 11/31/7
f 53/43/5 55/39/5 9/39/5 7/43/5
f 11/34/8 57/34/8 58/44/8 12/44/8
f 7/45/4 8/46/4 13/42/4 12/41/4
f 15/47/9 17/48/9 18/6/9 16/5/9
f 20/49/10 15/47/10 16/5/10 19/11/10
f 21/50/7 20/49/7 19/11/7 22/9/7
f 17/48/11 21/50/11 22/9/11 18/6/11
f 23/51/12 24/52/12 25/53/12
f 26/54/13 27/55/13 28/56/13
f 29/57/14 30/58/14 31/59/14
f 32/60/15 33/61/15 34/62/15
f 19/11/5 16/5/5 4/8/5 3/12/5
f 30/63/7 32/64/7 34/22/7 31/24/7
f 25/53/16 29/57/16 31/59/16 23/51/16
f 27/65/9 24/66/9 23/4/9 28/3/9
f 33/61/10 26/54/10 28/56/10 34/62/10
f 71/53/3 75/57/3 29/57/3 25/53/3
f 72/54/17 73/55/17 27/55/17 26/54/17
f 35/67/6 37/68/6 38/69/6 36/70/6
f 91/71/3 89/72/3 43/72/3 45/71/3
f 39/73/4 85/73/4 86/74/4 40/74/4
f 43/72/4 89/72/4 90/75/4 44/75/4
f 15/23/1 20/1/1 23/4/1 31/24/1
f 29/57/18 75/57/18 76/58/18 30/58/18
f 24/52/19 70/52/19 71/53/19 25/53/19
f 13/28/20 59/28/20 60/35/20 14/35/20
f 10/40/3 56/40/3 54/76/3 8/76/3
f 12/44/4 58/44/4 53/77/4 7/77/4
f 30/16/4 76/16/4 47/13/4 1/13/4
f 33/61/5 79/61/5 72/54/5 26/54/5
f 87/78/3 85/73/3 39/73/3 41/78/3
f 83/68/4 84/69/4 38/69/4 37/68/4
f 36/79/3 38/69/3 84/69/3 82/79/3
f 40/74/5 86/74/5 88/80/5 42/80/5
f 44/75/5 90/75/5 92/81/5 46/81/5
f 66/1/6 69/4/6 74/3/6 67/2/6
f 62/5/2 50/8/2 51/7/2 64/6/2
f 64/6/3 51/7/3 52/10/3 68/9/3
f 68/9/4 52/10/4 49/12/4 65/11/4
f 47/13/4 76/16/4 78/15/4 48/14/4
f 50/17/6 49/20/6 52/19/6 51/18/6
f 67/2/6 74/3/6 80/22/6 63/21/6
f 63/21/6 80/22/6 77/24/6 61/23/6
f 48/29/6 60/32/6 57/31/6 47/30/6
f 54/37/1 56/40/1 55/39/1 53/38/1
f 58/41/21 57/31/21 60/32/21 59/42/21
f 53/45/4 58/41/4 59/42/4 54/46/4
f 61/47/22 62/5/22 64/6/22 63/48/22
f 66/49/23 65/11/23 62/5/23 61/47/23
f 67/50/21 68/9/21 65/11/21 66/49/21
f 63/48/24 64/6/24 68/9/24 67/50/24
f 69/51/25 71/53/25 70/52/25
f 72/54/26 74/56/26 73/55/26
f 75/57/27 77/59/27 76/58/27
f 78/60/28 80/62/28 79/61/28
f 65/11/5 49/12/5 50/8/5 62/5/5
f 76/63/21 77/24/21 80/22/21 78/64/21
f 71/53/29 69/51/29 77/59/29 75/57/29
f 73/65/22 74/3/22 69/4/22 70/66/22
f 79/61/23 80/62/23 74/56/23 72/54/23
f 81/67/1 82/70/1 84/69/1 83/68/1
f 61/23/6 77/24/6 69/4/6 66/1/6
f 78/60/20 79/61/20 33/61/20 32/60/20
f 83/68/5 37/68/5 35/82/5 81/82/5
f 35/83/30 9/84/30 55/85/30 81/86/30
f 81/86/31 55/85/31 56/87/31 82/88/31
f 82/88/32 56/87/32 10/89/32 36/90/32
f 36/90/33 10/89/33 9/84/33 35/83/33
