# Blender 4.2.0
# www.blender.org
mtllib Table.mtl
g Table_Table
v 0.820943 0.830198 0.394249
v 0.828162 0.831690 0.401731
v 0.953104 -0.004601 0.445868
v 0.945755 -0.005125 0.438463
v 0.829927 0.824820 0.316147
v 0.822403 0.824516 0.323468
v 0.946259 -0.006809 0.414655
v 0.953920 -0.007333 0.407247
v 0.898661 0.840282 0.402495
v 0.906185 0.840586 0.395173
v 0.985249 -0.005125 0.438463
v 0.977636 -0.004601 0.445868
v 0.907644 0.834904 0.324391
v 0.900426 0.833412 0.316911
v 0.978454 -0.007333 0.407247
v 0.985753 -0.006809 0.414655
v -0.828162 0.831690 0.401731
v -0.820943 0.830198 0.394250
v -0.945755 -0.005125 0.438463
v -0.953104 -0.004601 0.445868
v -0.822403 0.824516 0.323468
v -0.829927 0.824820 0.316147
v -0.953920 -0.007333 0.407247
v -0.946259 -0.006809 0.414655
v -0.906185 0.840586 0.395173
v -0.898661 0.840282 0.402495
v -0.977636 -0.004601 0.445868
v -0.985248 -0.005125 0.438463
v -0.900425 0.833412 0.316911
v -0.907644 0.834904 0.324391
v -0.985753 -0.006809 0.414655
v -0.978454 -0.007333 0.407247
v 0.828162 0.831690 -0.401731
v 0.820943 0.830198 -0.394249
v 0.945755 -0.005125 -0.438463
v 0.953104 -0.004601 -0.445868
v 0.822403 0.824516 -0.323468
v 0.829927 0.824820 -0.316147
v 0.953920 -0.007333 -0.407247
v 0.946259 -0.006809 -0.414655
v 0.906185 0.840586 -0.395173
v 0.898661 0.840282 -0.402495
v 0.977636 -0.004601 -0.445868
v 0.985249 -0.005125 -0.438463
v 0.900426 0.833412 -0.316911
v 0.907644 0.834904 -0.324392
v 0.985753 -0.006809 -0.414655
v 0.978454 -0.007333 -0.407247
v -0.820943 0.830198 -0.394250
v -0.828162 0.831690 -0.401731
v -0.953104 -0.004601 -0.445868
v -0.945755 -0.005125 -0.438463
v -0.829927 0.824820 -0.316147
v -0.822403 0.824516 -0.323468
v -0.946259 -0.006809 -0.414655
v -0.953920 -0.007333 -0.407247
v -0.898661 0.840282 -0.402495
v -0.906185 0.840586 -0.395173
v -0.985249 -0.005125 -0.438463
v -0.977636 -0.004601 -0.445868
v -0.907644 0.834904 -0.324392
v -0.900426 0.833412 -0.316911
v -0.978454 -0.007333 -0.407247
v -0.985753 -0.006809 -0.414655
v -0.991007 0.812131 0.491007
v -1.000000 0.821124 0.500000
v -0.991007 0.860837 0.491007
v -1.000000 0.851844 0.500000
v -0.991007 0.812131 -0.491007
v -1.000000 0.821124 -0.500000
v -0.991007 0.860837 -0.491007
v -1.000000 0.851844 -0.500000
v 0.991007 0.812131 0.491007
v 1.000000 0.821124 0.500000
v 0.991007 0.860837 0.491007
v 1.000000 0.851844 0.500000
v 0.991007 0.812131 -0.491007
v 1.000000 0.821124 -0.500000
v 0.991007 0.860837 -0.491007
v 1.000000 0.851844 -0.500000
vn -0.0000 -0.0000 1.0000
vn 1.0000 -0.0000 -0.0000
vn -0.0000 1.0000 -0.0000
vn -1.0000 -0.0000 -0.0000
vn -0.0000 -0.0000 -1.0000
vn -0.0126 0.0505 0.9986
vn 0.9955 0.0938 0.0134
vn 0.9889 -0.1483 -0.0090
vn 0.0176 -0.1057 -0.9942
vn 0.0126 0.0505 0.9986
vn -0.9955 0.0938 0.0134
vn -0.9889 -0.1483 0.0090
vn -0.0176 -0.1057 -0.9942
vn -0.0126 0.0505 -0.9986
vn 0.9955 0.0938 -0.0134
vn 0.9889 -0.1483 0.0090
vn 0.0176 -0.1057 0.9942
vn 0.0126 0.0505 -0.9986
vn -0.9955 0.0938 -0.0134
vn -0.0176 -0.1057 0.9942
vn -0.7084 -0.0687 0.7025
vn -0.6863 -0.1795 -0.7049
vn 0.7165 -0.0084 -0.6975
vn 0.6945 0.1014 0.7123
vn 0.7084 -0.0687 0.7025
vn 0.6863 -0.1795 -0.7049
vn -0.7165 -0.0084 -0.6975
vn -0.6945 0.1014 0.7123
vn -0.7084 -0.0687 -0.7025
vn -0.6863 -0.1795 0.7049
vn 0.7165 -0.0084 0.6975
vn 0.6945 0.1014 -0.7123
vn 0.7084 -0.0687 -0.7025
vn 0.6863 -0.1795 0.7049
vn -0.7165 -0.0084 0.6975
vn -0.6945 0.1014 -0.7123
vn -0.9889 -0.1483 -0.0090
vn -0.7071 -0.7071 -0.0000
vn -0.7071 0.7071 -0.0000
vn 0.7071 -0.7071 -0.0000
vn 0.7071 0.7071 -0.0000
vn -0.0000 -0.7071 -0.7071
vn -0.0000 0.7071 -0.7071
vn -0.0000 -0.7071 0.7071
vn -0.0000 0.7071 0.7071
vn -0.0000 -1.0000 -0.0000
vt 0.019258 0.708608
vt 0.008717 0.708608
vt 0.008717 0.022344
vt 0.019258 0.022344
vt 0.365476 0.711694
vt 0.365476 0.722235
vt 0.022344 0.722235
vt 0.022344 0.711694
vt 0.743003 0.006997
vt 0.743003 0.688315
vt 0.405435 0.688315
vt 0.405435 0.006997
vt 0.022344 0.019258
vt 0.022344 0.008717
vt 0.365476 0.008717
vt 0.365476 0.019258
vt 0.368562 0.022344
vt 0.379103 0.022344
vt 0.379103 0.708608
vt 0.368562 0.708608
vt 0.429688 0.840710
vt 0.429688 0.811634
vt 0.742188 0.842813
vt 0.742188 0.852519
vt 0.429688 0.868729
vt 0.429688 0.846115
vt 0.742188 0.857716
vt 0.742188 0.864940
vt 0.019531 0.854603
vt 0.386719 0.874090
vt 0.386719 0.883722
vt 0.019531 0.883679
vt 0.429688 0.899641
vt 0.429688 0.873796
vt 0.742188 0.870137
vt 0.742188 0.879843
vt 0.023100 0.815878
vt 0.389888 0.855250
vt 0.387461 0.867382
vt 0.019869 0.848184
vt 0.019869 0.928821
vt 0.390625 0.906090
vt 0.390625 0.918130
vt 0.023100 0.957897
vt 0.901140 0.980131
vt 0.874090 0.625000
vt 0.883722 0.625000
vt 0.926985 0.976900
vt 0.019531 0.890097
vt 0.387461 0.889688
vt 0.389888 0.899394
vt 0.019531 0.922403
vt 0.862753 0.980469
vt 0.858419 0.625000
vt 0.868124 0.625000
vt 0.895060 0.980469
vt 0.830827 0.980469
vt 0.842841 0.625000
vt 0.852473 0.625000
vt 0.856672 0.980469
vt 0.840710 0.515287
vt 0.811634 0.512057
vt 0.834279 0.160156
vt 0.841503 0.160156
vt 0.792441 0.976900
vt 0.824024 0.625000
vt 0.836157 0.625000
vt 0.824747 0.980131
vt 0.879435 0.512057
vt 0.847128 0.515287
vt 0.847462 0.160156
vt 0.859594 0.160156
vt 0.911360 0.511719
vt 0.885515 0.511719
vt 0.866277 0.160156
vt 0.875909 0.160156
vt 0.805554 0.511719
vt 0.776478 0.511719
vt 0.816187 0.160156
vt 0.828320 0.160156
vt 0.433256 0.930891
vt 0.742188 0.895442
vt 0.742188 0.898438
vt 0.433668 0.933585
vt 0.742188 0.885810
vt 0.430025 0.905046
vt 0.390326 0.921907
vt 0.023526 0.960928
vt 0.886719 0.625000
vt 0.929677 0.976477
vt 0.773446 0.511643
vt 0.812500 0.160156
vt 0.362390 0.025430
vt 0.025430 0.025430
vt 0.746094 0.691406
vt 0.402344 0.691406
vt 0.025430 0.705522
vt 0.362390 0.705523
vt 0.402344 0.003906
vt 0.746094 0.003906
s 0
g Table_Table
usemtl Table
f 74/1/1 76/2/1 68/3/1 66/4/1
f 78/5/2 80/6/2 76/7/2 74/8/2
f 79/9/3 71/10/3 67/11/3 75/12/3
f 66/13/4 68/14/4 72/15/4 70/16/4
f 70/17/5 72/18/5 80/19/5 78/20/5
f 9/21/6 2/22/6 3/23/6 12/24/6
f 13/25/7 10/26/7 11/27/7 16/28/7
f 18/29/8 19/30/8 24/31/8 21/32/8
f 5/33/9 14/34/9 15/35/9 8/36/9
f 26/37/10 27/38/10 20/39/10 17/40/10
f 30/41/11 31/42/11 28/43/11 25/44/11
f 34/45/12 35/46/12 40/47/12 37/48/12
f 22/49/13 23/50/13 32/51/13 29/52/13
f 42/53/14 43/54/14 36/55/14 33/56/14
f 46/57/15 47/58/15 44/59/15 41/60/15
f 49/61/16 54/62/16 55/63/16 52/64/16
f 38/65/17 39/66/17 48/67/17 45/68/17
f 57/69/18 50/70/18 51/71/18 60/72/18
f 61/73/19 58/74/19 59/75/19 64/76/19
f 53/77/20 62/78/20 63/79/20 56/80/20
f 1/81/21 4/82/21 3/83/21 2/84/21
f 7/85/22 6/86/22 5/33/22 8/36/22
f 15/35/23 14/34/23 13/25/23 16/28/23
f 11/27/24 10/26/24 9/21/24 12/24/24
f 17/40/25 20/39/25 19/30/25 18/29/25
f 23/50/26 22/49/26 21/32/26 24/31/26
f 31/42/27 30/41/27 29/52/27 32/51/27
f 27/87/28 26/88/28 25/44/28 28/43/28
f 33/56/29 36/55/29 35/46/29 34/45/29
f 39/89/30 38/90/30 37/48/30 40/47/30
f 47/58/31 46/57/31 45/68/31 48/67/31
f 43/54/32 42/53/32 41/60/32 44/59/32
f 49/61/33 52/64/33 51/71/33 50/70/33
f 55/63/34 54/62/34 53/77/34 56/80/34
f 63/79/35 62/78/35 61/91/35 64/92/35
f 59/75/36 58/74/36 57/69/36 60/72/36
f 1/81/37 6/86/37 7/85/37 4/82/37
f 69/93/38 65/94/38 66/13/38 70/16/38
f 67/11/39 71/10/39 72/95/39 68/96/39
f 73/97/40 77/98/40 78/5/40 74/8/40
f 79/9/41 75/12/41 76/99/41 80/100/41
f 77/98/42 69/93/42 70/17/42 78/20/42
f 71/10/43 79/9/43 80/100/43 72/95/43
f 65/94/44 73/97/44 74/1/44 66/4/44
f 75/12/45 67/11/45 68/96/45 76/99/45
f 69/93/46 77/98/46 73/97/46 65/94/46
