# Blender 4.2.0
# www.blender.org
mtllib Wall.mtl
g Wall_Wall
v 1.000000 0.000000 -0.200000
v 1.000000 4.000000 -0.199999
v 1.000000 4.000000 0.400000
v -1.000000 0.000000 -0.200000
v -1.000000 4.000000 -0.199999
v -1.000000 4.000000 0.400001
v 1.000000 -0.000000 0.400000
v -1.000000 -0.000000 0.400000
v 1.000000 2.000000 0.400000
v -1.000000 2.000000 0.400000
v -1.000000 2.000000 -0.199999
v 1.000000 2.000000 -0.200000
v 1.000000 4.000000 0.400000
v -1.000000 4.000000 0.400001
v 1.000000 3.700000 0.400000
v -1.000000 3.700000 0.400001
v 1.000000 4.000000 0.553341
v -1.000000 4.000000 0.553341
v 1.000000 3.700000 0.553341
v -1.000000 3.700000 0.553341
v 1.000000 3.500000 0.400000
v -1.000000 3.500000 0.400001
v 1.000000 3.700000 0.400000
v -1.000000 3.700000 0.400001
v 1.000000 3.700000 0.433048
v 1.000000 3.500000 0.433048
v -1.000000 3.700000 0.433048
v -1.000000 3.500000 0.433048
vn -0.0000 1.0000 -0.0000
vn -0.0000 -1.0000 -0.0000
vn 1.0000 -0.0000 -0.0000
vn -0.0000 -0.0000 1.0000
vn -0.0000 -0.0000 -1.0000
vn -1.0000 -0.0000 -0.0000
vt 0.000274 0.349914
vt 0.499726 0.349915
vt 0.499726 0.499750
vt 0.000274 0.499750
vt 0.499726 0.349101
vt 0.499726 0.498937
vt 0.000274 0.498937
vt 0.000274 0.349101
vt 0.347621 0.499618
vt 0.347621 0.000382
vt 0.497391 0.000382
vt 0.497391 0.499618
vt 0.000499 0.499501
vt 0.000499 0.000499
vt 0.499501 0.000499
vt 0.499501 0.499501
vt 0.000499 0.499251
vt 0.000499 0.000249
vt 0.499501 0.000250
vt 0.499501 0.499252
vt 0.499501 0.499501
vt 0.000499 0.499501
vt 0.000499 0.000499
vt 0.499501 0.000499
vt 0.494939 0.000000
vt 0.494939 0.500000
vt 0.344939 0.500000
vt 0.344939 0.000000
vt 0.349992 0.496698
vt 0.349992 0.003302
vt 0.498011 0.003302
vt 0.498011 0.496698
vt 0.999806 0.891837
vt 0.999806 0.966779
vt 0.500193 0.966779
vt 0.500193 0.891837
vt 0.999862 0.999984
vt 0.500138 0.999984
vt 0.500138 0.969333
vt 0.999862 0.969333
vt 0.500016 0.861889
vt 0.999984 0.861889
vt 0.999984 0.890579
vt 0.500016 0.890579
vt 0.500030 0.860488
vt 0.500000 0.819264
vt 0.999970 0.818902
vt 1.000000 0.860126
vt 0.010544 0.087984
vt 0.010545 0.434438
vt 0.004820 0.434438
vt 0.004820 0.087984
vt 0.982166 0.999987
vt 0.517834 0.999986
vt 0.517834 0.992314
vt 0.982166 0.992314
vt 0.349992 0.003302
vt 0.000488 0.499512
vt 0.000488 0.000488
vt 0.499512 0.000488
vt 0.499512 0.499512
vt 0.541515 0.970339
vt 0.500706 0.970339
vt 0.500706 0.890498
vt 0.541515 0.890498
vt 0.500916 0.819447
vt 0.507600 0.819447
vt 0.507600 0.859901
vt 0.500916 0.859901
vt 0.999020 0.968298
vt 0.959231 0.968298
vt 0.959231 0.890454
vt 0.999020 0.890454
vt 0.999165 0.859358
vt 0.992563 0.859358
vt 0.992563 0.819403
vt 0.999165 0.819403
s 1
g Wall_Tavern_Interior_Atlas
usemtl Tavern_Interior_Atlas
f 6/1/1 3/2/1 2/3/1 5/4/1
f 1/5/2 7/6/2 8/7/2 4/8/2
f 12/9/3 2/10/3 3/11/3 9/12/3
f 9/13/4 3/14/4 6/15/4 10/16/4
f 11/17/5 5/18/5 2/19/5 12/20/5
f 1/21/5 4/22/5 11/23/5 12/24/5
f 9/25/3 7/26/3 1/27/3 12/28/3
f 10/29/6 6/30/6 5/31/6 11/32/6
f 19/33/4 17/34/4 18/35/4 20/36/4
f 13/37/1 14/38/1 18/39/1 17/40/1
f 16/41/2 15/42/2 19/43/2 20/44/2
f 26/45/4 25/46/4 27/47/4 28/48/4
f 23/49/1 24/50/1 27/51/1 25/52/1
f 22/53/2 21/54/2 26/55/2 28/56/2
f 11/31/6 4/32/6 8/29/6 10/57/6
f 7/58/4 9/59/4 10/60/4 8/61/4
f 18/62/6 14/63/6 24/64/6 20/65/6
f 22/66/6 28/67/6 27/68/6 24/69/6
f 13/70/3 17/71/3 19/72/3 15/73/3
f 23/74/3 25/75/3 26/76/3 21/77/3
